<svg width="256" height="256" viewBox="0 0 256 256" fill="none" xmlns="http://www.w3.org/2000/svg">
  <g filter="url(#shadow)">
    <rect x="20" y="20" width="216" height="216" rx="52" fill="url(#card)"/>
    <rect x="20.75" y="20.75" width="214.5" height="214.5" rx="51.25" stroke="url(#cardStroke)" stroke-opacity="0.7" stroke-width="1.5"/>
  </g>
  <g opacity="0.72" filter="url(#glow)">
    <path d="M127.56 63C136.28 81.88 145.37 92.67 164.75 101.71C146.44 109.18 137.08 118.53 127.56 138C118.78 119.19 109.39 109.93 91 101.71C109.31 93.62 118.71 84.35 127.56 63Z" fill="url(#nebula)"/>
  </g>
  <circle cx="90" cy="79" r="3.2" fill="#D7CDFE"/>
  <circle cx="170" cy="76" r="2.6" fill="#C6B7FF"/>
  <circle cx="186" cy="110" r="2.1" fill="#D2C5FE"/>
  <circle cx="70" cy="123" r="2.3" fill="#D5C9FF"/>
  <circle cx="168" cy="145" r="2.8" fill="#D7CDFE"/>
  <path d="M128 65L140.03 108.96L182 128L140.03 147.04L128 191L115.97 147.04L74 128L115.97 108.96L128 65Z" fill="url(#starFill)" stroke="url(#starStroke)" stroke-width="3.2" stroke-linejoin="round"/>
  <path d="M128 88V168" stroke="url(#core)" stroke-width="3.2" stroke-linecap="round"/>
  <path d="M168 128H88" stroke="url(#core)" stroke-width="3.2" stroke-linecap="round"/>
  <path d="M102 102L154 154" stroke="url(#core)" stroke-width="2.6" stroke-linecap="round"/>
  <path d="M154 102L102 154" stroke="url(#core)" stroke-width="2.6" stroke-linecap="round"/>
  <path d="M55 150.43C79.22 176.08 122.75 184.57 165.07 173.08C188.24 166.8 206.27 155.08 217.5 140.31" stroke="url(#orbit)" stroke-width="6" stroke-linecap="round"/>
  <path d="M56.5 149.5C86.95 124.86 138.56 118.43 183.15 133.39C197.93 138.35 210.33 145.78 219.21 154.79" stroke="url(#orbitLight)" stroke-width="3" stroke-linecap="round" opacity="0.75"/>
  <defs>
    <filter id="shadow" x="0" y="0" width="256" height="256" filterUnits="userSpaceOnUse" color-interpolation-filters="sRGB">
      <feFlood flood-opacity="0" result="BackgroundImageFix"/>
      <feColorMatrix in="SourceAlpha" type="matrix" values="0 0 0 0 0 0 0 0 0 0 0 0 0 0 0 0 0 0 127 0" result="hardAlpha"/>
      <feOffset dy="10"/>
      <feGaussianBlur stdDeviation="10"/>
      <feComposite in2="hardAlpha" operator="out"/>
      <feColorMatrix type="matrix" values="0 0 0 0 0.533333 0 0 0 0 0.470588 0 0 0 0 0.882353 0 0 0 0.18 0"/>
      <feBlend mode="normal" in2="BackgroundImageFix" result="effect1_dropShadow_1_2"/>
      <feBlend mode="normal" in="SourceGraphic" in2="effect1_dropShadow_1_2" result="shape"/>
    </filter>
    <filter id="glow" x="66" y="38" width="124.75" height="125" filterUnits="userSpaceOnUse" color-interpolation-filters="sRGB">
      <feFlood flood-opacity="0" result="BackgroundImageFix"/>
      <feBlend mode="normal" in="SourceGraphic" in2="BackgroundImageFix" result="shape"/>
      <feGaussianBlur stdDeviation="12" result="effect1_foregroundBlur_1_2"/>
    </filter>
    <linearGradient id="card" x1="34" y1="30" x2="214" y2="228" gradientUnits="userSpaceOnUse">
      <stop stop-color="#FBFAFF"/>
      <stop offset="1" stop-color="#F1ECFF"/>
    </linearGradient>
    <linearGradient id="cardStroke" x1="44" y1="28" x2="214" y2="220" gradientUnits="userSpaceOnUse">
      <stop stop-color="#FFFFFF"/>
      <stop offset="1" stop-color="#D8CDF8"/>
    </linearGradient>
    <radialGradient id="nebula" cx="0" cy="0" r="1" gradientUnits="userSpaceOnUse" gradientTransform="translate(127.56 101.71) rotate(90) scale(53.5)">
      <stop stop-color="#D6CBFF"/>
      <stop offset="1" stop-color="#D6CBFF" stop-opacity="0"/>
    </radialGradient>
    <linearGradient id="starFill" x1="87" y1="86" x2="176" y2="176" gradientUnits="userSpaceOnUse">
      <stop stop-color="#F9F6FF"/>
      <stop offset="0.48" stop-color="#E7DDFF"/>
      <stop offset="1" stop-color="#CDBAFB"/>
    </linearGradient>
    <linearGradient id="starStroke" x1="88" y1="82" x2="175" y2="174" gradientUnits="userSpaceOnUse">
      <stop stop-color="#C5B2F8"/>
      <stop offset="1" stop-color="#9079E9"/>
    </linearGradient>
    <linearGradient id="core" x1="128" y1="88" x2="128" y2="168" gradientUnits="userSpaceOnUse">
      <stop stop-color="#B89DF5"/>
      <stop offset="1" stop-color="#9077E9"/>
    </linearGradient>
    <linearGradient id="orbit" x1="61" y1="154" x2="214" y2="151" gradientUnits="userSpaceOnUse">
      <stop stop-color="#D6C8FE"/>
      <stop offset="0.48" stop-color="#AE95F3"/>
      <stop offset="1" stop-color="#8F78E8"/>
    </linearGradient>
    <linearGradient id="orbitLight" x1="61" y1="136" x2="216" y2="156" gradientUnits="userSpaceOnUse">
      <stop stop-color="#EFEAFF"/>
      <stop offset="1" stop-color="#C4B3FA"/>
    </linearGradient>
  </defs>
</svg>
